<svg id="Layer_1" data-name="Layer 1" xmlns="http://www.w3.org/2000/svg" viewBox="0 0 910 567"><defs><clipPath id="clip-path"><path fill="none" d="M-54.71-32.07h554.22V567H-54.71z"/></clipPath><style>.cls-2{fill:#eaf1fc}.cls-4{fill:#e9edf4}.cls-5{fill:#d6e0f0}.cls-7{fill:#cde4f7}.cls-8{fill:#fff}.cls-9{fill:#fcfbfc}.cls-10{fill:#0b2b46}.cls-11{fill:#ffae0a}.cls-12{fill:#ffda35}.cls-14{fill:#ffeb47}.cls-15{fill:#ff8500}.cls-16{fill:#af7309}.cls-17{fill:#a97000}.cls-18{fill:#f4a721}.cls-19{clip-path:url(#clip-path)}.cls-20{fill:#02819f}.cls-21{fill:#e8815f}.cls-22{fill:#f09976}.cls-23{fill:#05616b}</style></defs><g id="Layer_6" data-name="Layer 6"><g id="Refs"><ellipse class="cls-2" cx="455.18" cy="500.75" rx="455.18" ry="65.21"/><path d="M828.67 476.19c51.93-107.89 80.49-314.41-32-382.95-73.62-44.87-150.3 12.85-229 15.49C505.9 110.8 446.32 62 390.58 48.08 244.5 11.58 14.72 106.5 115.75 476.19c252.63-.71 460.3.72 712.92 0z" fill="#f8f8ff"/><path class="cls-4" d="M55.43 165.32h166.2v299.96H55.43z"/><path class="cls-5" d="M67.49 177.52h142.09v58.56H67.49zm0 72.34h142.09v58.56H67.49zm0 72.33h142.09v58.56H67.49zm0 72.34h142.09v58.56H67.49zM223 165.32H54.07a7.1 7.1 0 01-7.1-7.1v-.43a7.1 7.1 0 017.1-7.1H223a7.1 7.1 0 017.1 7.1v.43a7.1 7.1 0 01-7.1 7.1zm0 314.6H54.07a7.1 7.1 0 01-7.1-7.1v-.43a7.1 7.1 0 017.1-7.1H223a7.1 7.1 0 017.1 7.1v.43a7.1 7.1 0 01-7.1 7.1zm-163.99 0l-5.43 20.95h12.86l15.19-20.95H59.01zm159.04 0l5.42 20.95h-12.85l-15.2-20.95h22.63z"/><path d="M68.22 308.41h9.5v-45.85a12.47 12.47 0 00-9.5 0z" fill="#ecf7fe"/><path class="cls-4" d="M151.46 236.21l-7.1-3 21.39-41.63a9.27 9.27 0 014 .62 8 8 0 013.11 2.33zm.92-156.34c-8 2.88-4.24 13.82.88 18.8 5.54 5.37 14.06 8.36 18.84 2.54a2.28 2.28 0 00-2-3.81c-3.38.12-6-.79-4.71-3.28s6.54 2.31 8.48 2.34c4.32.06 6-3.21 5-5.91-.83-2.23-6.8-3-5.37-4.84 2.1-2.61 5.17 1.47 7.38-.36 3.45-2.85 2.83-8.34 1.3-10.3-1.23-1.57-6.19-4-9.93-2.45-3.55 1.5-2.46 9.25-4.15 9.36-3.19.18-.62-6.64-3.12-8.69-1.49-1.21-5.92-.43-7 2.48-1.37 3.81 3.86 11 0 11.48-3.5.49-1.49-3.62-2.56-5.86-.23-.59-1.49-2.06-3.04-1.5z"/><path class="cls-7" d="M127.42 142.55h-.11a.34.34 0 01-.22-.43A118.54 118.54 0 01177 78.74a.34.34 0 11.36.58 117.81 117.81 0 00-49.61 63 .3.3 0 01-.33.23z"/><path class="cls-4" d="M130.21 57.35c-5.83 6.16 2.42 14.25 9.24 16.4 7.36 2.31 16.32 1.15 18-6.2a2.29 2.29 0 00-3.51-2.55c-3 1.63-5.7 2-5.68-.81s6.88-.87 8.63-1.72c3.89-1.89 3.91-5.56 1.79-7.52-1.75-1.62-7.44.35-7-1.91.7-3.27 5.28-1 6.43-3.63 1.8-4.09-1.22-8.72-3.46-9.78-1.8-.85-7.34-.82-10 2.28-2.49 2.93 2 9.37.5 10.23-2.77 1.59-3.54-5.65-6.69-6.36-1.87-.42-5.48 2.28-5.11 5.34.49 4 8.4 8.11 5.2 10.24-2.91 2-3-2.56-4.92-4.09-.49-.37-2.28-1.12-3.42.08z"/><path class="cls-7" d="M135.94 124.6a.34.34 0 01-.34-.29 118.47 118.47 0 0116.1-79 .34.34 0 11.58.36 117.79 117.79 0 00-16 78.56.34.34 0 01-.29.39z"/><path class="cls-4" d="M124.15 71.33c7.22 4.44 1.34 14.39-4.69 18.23-6.52 4.13-15.47 5.32-19-1.34a2.28 2.28 0 012.71-3.33c3.29.8 6 .44 5.28-2.25s-6.87.94-8.78.57c-4.24-.82-5.21-4.36-3.67-6.8 1.27-2 7.27-1.58 6.24-3.65-1.52-3-5.36.39-7.15-1.85-2.79-3.49-1.07-8.74.82-10.34 1.52-1.29 6.88-2.69 10.22-.38 3.17 2.19.53 9.56 2.16 10 3.08.82 2-6.38 4.82-7.87 1.7-.89 5.88.79 6.32 3.84.57 4-6 10-2.38 11.23 3.33 1.19 2.2-3.24 3.7-5.22.45-.52 1.99-1.71 3.4-.84z"/><path class="cls-7" d="M135.89 137.78a.34.34 0 01-.34-.3 117.73 117.73 0 00-35.76-71.76.34.34 0 01.47-.49 118.4 118.4 0 0136 72.18.34.34 0 01-.3.38z"/><path class="cls-4" d="M121.81 150.57h25.95l3.92-35.53h-34.03l4.16 35.53z"/><path class="cls-4" d="M151.78 121.39h-34.24a.94.94 0 01-.94-.86l-.44-4.45a1 1 0 01.94-1h35.11a.94.94 0 01.94 1l-.44 4.45a.93.93 0 01-.93.86z"/><path class="cls-8" d="M404.9 315.42h-148a3.66 3.66 0 01-3.66-3.66V97c-5.63-80.36 26.56-77.63 77.63-77.63h.05C412 14.06 408.55 54.1 408.55 97v214.77a3.64 3.64 0 01-3.65 3.65z"/><path class="cls-5" d="M405.63 318.61H254.52a4.51 4.51 0 01-4.52-4.51V64.81a47.13 47.13 0 0147.08-47.08h66a47.16 47.16 0 0147.11 47.11V314.1a4.53 4.53 0 01-4.56 4.51zm-150.85-4.77h150.6v-249A42.38 42.38 0 00363 22.5h-66a42.36 42.36 0 00-42.31 42.31v249z"/><path class="cls-5" d="M330.08 316.7a2.38 2.38 0 01-2.38-2.38V20.11a2.38 2.38 0 014.76 0v294.2a2.39 2.39 0 01-2.38 2.39z"/><path class="cls-5" d="M407.76 248.69H252.39a2.38 2.38 0 010-4.76h155.37a2.38 2.38 0 010 4.76zm0-147.69H252.39a2.38 2.38 0 110-4.76h155.37a2.38 2.38 0 010 4.76zm0 73.85H252.39a2.38 2.38 0 010-4.76h155.37a2.38 2.38 0 010 4.76z"/><path class="cls-8" d="M682.7 315.42H534.43a3.55 3.55 0 01-3.55-3.55V94.68a75.36 75.36 0 0175.37-75.37h4.58a75.42 75.42 0 0175.42 75.42v217.14a3.54 3.54 0 01-3.55 3.55z"/><path class="cls-5" d="M683.32 318.61H532.21a4.51 4.51 0 01-4.51-4.51V64.81a47.13 47.13 0 0147.08-47.08h66a47.16 47.16 0 0147.11 47.11V314.1a4.53 4.53 0 01-4.57 4.51zm-150.86-4.77h150.6v-249a42.38 42.38 0 00-42.34-42.34h-66a42.36 42.36 0 00-42.31 42.31z"/><path class="cls-5" d="M607.77 316.7a2.38 2.38 0 01-2.38-2.38V20.11a2.38 2.38 0 014.76 0v294.2a2.39 2.39 0 01-2.38 2.39z"/><path class="cls-5" d="M685.45 248.69H530.08a2.38 2.38 0 010-4.76h155.37a2.38 2.38 0 010 4.76zm0-147.69H530.08a2.38 2.38 0 110-4.76h155.37a2.38 2.38 0 010 4.76zm0 73.85H530.08a2.38 2.38 0 010-4.76h155.37a2.38 2.38 0 010 4.76z"/><path class="cls-4" d="M783.46 103.7c-8 2.88-4.24 13.82.88 18.8 5.54 5.37 14.06 8.36 18.84 2.54a2.28 2.28 0 00-2-3.81c-3.38.12-6-.79-4.71-3.28s6.54 2.31 8.48 2.34c4.32.06 6-3.21 5-5.91-.83-2.23-6.8-3-5.37-4.84 2.1-2.61 5.17 1.47 7.38-.36 3.45-2.85 2.83-8.34 1.3-10.3-1.23-1.57-6.19-4-9.93-2.45-3.55 1.5-2.46 9.25-4.15 9.36-3.19.18-.62-6.64-3.12-8.69-1.49-1.21-5.92-.43-7 2.48-1.37 3.81 3.86 11 0 11.48-3.5.49-1.49-3.62-2.56-5.86-.23-.59-1.5-2.06-3.04-1.5z"/><path class="cls-7" d="M758.5 166.38h-.11a.34.34 0 01-.22-.43 118.54 118.54 0 0149.89-63.36.34.34 0 01.36.58 117.81 117.81 0 00-49.61 63 .3.3 0 01-.31.21z"/><path class="cls-4" d="M761.29 81.18c-5.83 6.16 2.42 14.25 9.24 16.4 7.36 2.31 16.32 1.15 18-6.2a2.29 2.29 0 00-3.53-2.52c-3 1.63-5.7 2-5.68-.81s6.88-.87 8.63-1.72c3.89-1.89 3.91-5.56 1.79-7.52-1.75-1.62-7.44.35-7-1.91.7-3.27 5.28-1 6.43-3.63 1.8-4.09-1.22-8.72-3.46-9.78-1.8-.85-7.34-.82-10 2.28-2.49 2.93 2 9.37.5 10.23-2.77 1.59-3.54-5.65-6.69-6.36-1.87-.42-5.48 2.28-5.11 5.34.49 4 8.4 8.11 5.2 10.24-2.91 2-3-2.56-4.92-4.09-.47-.4-2.26-1.13-3.4.05z"/><path class="cls-7" d="M767 148.43a.34.34 0 01-.34-.29 118.47 118.47 0 0116.1-79 .34.34 0 11.58.36 117.75 117.75 0 00-16 78.56.34.34 0 01-.29.39z"/><path class="cls-4" d="M755.23 95.16c7.22 4.44 1.34 14.39-4.69 18.23-6.52 4.13-15.47 5.32-19-1.34a2.28 2.28 0 012.71-3.33c3.29.8 6 .44 5.28-2.25s-6.87.93-8.78.57c-4.24-.82-5.21-4.36-3.67-6.8 1.27-2 7.27-1.58 6.24-3.65-1.52-3-5.36.39-7.15-1.85-2.79-3.49-1.07-8.74.82-10.34 1.52-1.29 6.88-2.69 10.22-.38 3.17 2.19.53 9.56 2.16 10 3.08.82 2-6.38 4.82-7.87 1.7-.89 5.88.79 6.32 3.84.57 4-6 10-2.38 11.23 3.33 1.19 2.2-3.24 3.7-5.22.45-.52 1.99-1.71 3.4-.84z"/><path class="cls-7" d="M767 161.61a.34.34 0 01-.34-.3 117.73 117.73 0 00-35.76-71.76.34.34 0 01.47-.49 118.4 118.4 0 0136 72.18.34.34 0 01-.3.38z"/><path class="cls-8" d="M752.89 174.4h25.95l3.92-35.53h-34.03l4.16 35.53z"/><path class="cls-4" d="M782.86 145.22h-34.24a.94.94 0 01-.94-.86l-.44-4.45a1 1 0 01.94-1h35.11a.94.94 0 01.94 1l-.44 4.45a.92.92 0 01-.93.86z"/><path class="cls-5" d="M717 174.74a.83.83 0 00-.83.83v2.19a.84.84 0 00.83.84h82.31a.83.83 0 00.83-.84v-2.19a.83.83 0 00-.83-.83z"/><path class="cls-4" d="M804.12 281.07h8.26V234a9.36 9.36 0 00-8.26 0z"/><path class="cls-7" d="M779 280.93h7.16v-47.1a7.16 7.16 0 00-7.16 0v47.1z"/><path class="cls-8" d="M832.21 281l6.56-3L819 235.25a7.65 7.65 0 00-3.68.64 7.73 7.73 0 00-2.87 2.39zm-46.09-.1h8.26v-47.1a9.36 9.36 0 00-8.26 0z"/><path class="cls-7" d="M794.36 281.07h9.76V234a12.88 12.88 0 00-9.76 0z"/><path class="cls-5" d="M767 281.27a.83.83 0 00-.83.84v2.19a.83.83 0 00.83.83h82.31a.83.83 0 00.83-.83v-2.19a.84.84 0 00-.83-.84z"/><path class="cls-2" d="M480.37-2.44h3.09v141.16h-3.09z"/><path class="cls-5" d="M505.13 168a23.84 23.84 0 00-47.68 0z"/><path class="cls-5" d="M489.77 144.3c0 7-4 12.67-8.84 12.67s-8.84-5.67-8.84-12.67 4-12.67 8.84-12.67 8.84 5.68 8.84 12.67z"/><path class="cls-2" d="M441.21-2.44h3.09v91.7h-3.09z"/><path class="cls-5" d="M466 118.52a23.84 23.84 0 00-47.68 0z"/><path class="cls-5" d="M450.62 94.85c0 7-4 12.67-8.84 12.67s-8.84-5.67-8.84-12.67 4-12.67 8.84-12.67 8.84 5.67 8.84 12.67z"/><circle class="cls-5" cx="461.79" cy="206.77" r="27.82"/><circle class="cls-9" cx="461.79" cy="206.77" r="21.11"/><path class="cls-5" d="M467.94 220.35l-5.12-14.07a1.44 1.44 0 00-1.68-.91l-15 3.52a1.44 1.44 0 00.66 2.8l13.78-3.23 4.68 12.87a1.45 1.45 0 001.35.95 1.41 1.41 0 00.49-.09 1.43 1.43 0 00.84-1.84z"/><circle class="cls-5" cx="461.47" cy="206.77" r="2.88"/><path class="cls-4" d="M393.61 315.99h7.14v40.36h-7.14z"/><path class="cls-5" d="M422.79 358.21h-51.22a7.46 7.46 0 017.45-7.45h36.32a7.45 7.45 0 017.45 7.45z"/><path class="cls-7" d="M423 322.51h-51.68a3.66 3.66 0 01-3.34-5.16l15.65-34.9a3.65 3.65 0 013.34-2.16h20.41a3.67 3.67 0 013.34 2.16l15.65 34.9a3.66 3.66 0 01-3.37 5.16z"/><path class="cls-4" d="M310.52 358.21h143.62v127.07H310.52z"/><path class="cls-5" d="M322.94 367.88h117.55v44.55H322.94zm0 53.86h117.55v51.53H322.94zm-6.42 63.54h12.83v11.17h-12.83zm117.55 0h12.83v11.17h-12.83z"/><circle class="cls-9" cx="334.64" cy="431.85" r="6.29"/><path class="cls-4" transform="rotate(-.06 381.757 410.82)" d="M330.45 376.04h58.36v15.52h-58.36z"/><path class="cls-9" transform="rotate(-.06 362.668 391.711)" d="M342.5 392.12h64.36v20.28H342.5z"/></g></g><g id="Layer_18" data-name="Layer 18"><path class="cls-10" d="M446.7 504.05h-8.8a1.62 1.62 0 01-1.53-1.56l-3.87-49.44h19.59l-3.87 49.44a1.61 1.61 0 01-1.52 1.56zm364.47 0h-8.8a1.62 1.62 0 01-1.53-1.56L797 453.05h19.59l-3.87 49.44a1.6 1.6 0 01-1.55 1.56z"/><path class="cls-11" d="M816.56 416.89H432.5v43.69a1.36 1.36 0 001.36 1.36H815.2a1.36 1.36 0 001.36-1.36z"/><path class="cls-12" d="M624.53 452.2h192v-137a8.33 8.33 0 00-8.33-8.33H632.86a8.33 8.33 0 00-8.33 8.33v137z"/><path class="cls-11" d="M758.57 355.6a4.79 4.79 0 104.79-4.85 4.82 4.82 0 00-4.79 4.85zm-85.57 0a4.79 4.79 0 104.79-4.85 4.82 4.82 0 00-4.79 4.85z"/><path class="cls-12" d="M624.53 452.2h-192v-137a8.33 8.33 0 018.33-8.33h175.35a8.33 8.33 0 018.33 8.33v137z"/><path d="M624 311.18c-.66 25.09-.73 50.21-.44 75.3 0 1.58 2.9 1.58 2.88 0-.3-25.1-.9-50.2-1-75.3 0-.82-1.47-.82-1.49 0zm-191.5 77.27h384.06v45.05H432.5z" fill="#ffcb24"/><path class="cls-11" d="M625.67 400.31c-.08-2.89.18-6.24-.84-8.95a.3.3 0 00-.59 0c-1 2.56-.75 5.64-.83 8.38-.11 3.66-.16 7.31-.22 11s-.72 8.25 0 12a1.41 1.41 0 002.76 0c.69-3.73 0-8.21 0-12"/><path class="cls-12" d="M619 424H423.09a5.52 5.52 0 00-5.52 5.52v18.73a5.52 5.52 0 005.52 5.52H619a5.52 5.52 0 005.52-5.52v-18.73A5.54 5.54 0 00619 424z"/><path class="cls-14" d="M454.86 400.37c0-14.34-10.88-25.86-23.94-24.85-11.21.86-20.21 11.12-20.74 23.63a26.61 26.61 0 005.51 17.63 9.67 9.67 0 011.93 7.33c-.73 4.91 2.66 9.38 7.13 9.38h15.53c4.47 0 7.87-4.47 7.13-9.38a9.58 9.58 0 011.91-7.3 26.63 26.63 0 005.54-16.44z"/><path class="cls-11" d="M490.49 355.6a4.79 4.79 0 11-4.79-4.85 4.82 4.82 0 014.79 4.85z"/><ellipse class="cls-11" cx="571.33" cy="355.6" rx="4.79" ry="4.85"/><path class="cls-12" d="M630.05 424H826a5.52 5.52 0 015.52 5.52v18.73a5.52 5.52 0 01-5.52 5.52H630.05a5.52 5.52 0 01-5.52-5.52v-18.73a5.52 5.52 0 015.52-5.52z"/><path class="cls-14" d="M794.21 400.37c0-14.34 10.88-25.86 23.94-24.85 11.21.86 20.21 11.12 20.74 23.63a26.61 26.61 0 01-5.51 17.63 9.67 9.67 0 00-1.93 7.33c.73 4.91-2.66 9.38-7.13 9.38H808.8c-4.47 0-7.87-4.47-7.13-9.38a9.58 9.58 0 00-1.91-7.3 26.51 26.51 0 01-5.55-16.44z"/><path class="cls-15" d="M744.66 423.47s-6.16-5.22-3.95-12.82 12.51-13.47 24.83-11.07 22.13 15.44 23.1 23.89z"/><path class="cls-16" d="M785.84 406.39a11.61 11.61 0 017.71-2.95l-1.89 7.79zm-6.84.28l-3.34-5.05s-5.35 4.31-3.46 9.6 6.8-4.55 6.8-4.55z"/><path class="cls-15" d="M773.45 408.28s-6.65 4.91-6 10.2 8 6.25 18.37 5.73 8.84-7.47 8.47-9.51-7.77-16.55-20.84-6.42z"/><path class="cls-17" d="M774.37 411.7a3.88 3.88 0 003.68 2.42c3 .15 2.93-2.18 2.93-2.18a4.45 4.45 0 01-6.61-.24z"/><path class="cls-18" d="M778.71 415.69a5.61 5.61 0 014.27-.86c2.73.42 3.54 2 3.72 2.67s-1 3.2-4.38 2.67-5.32-3.07-3.61-4.48z"/><path class="cls-17" d="M784.2 412.11a3.88 3.88 0 003.68 2.42c3 .15 2.93-2.18 2.93-2.18a4.45 4.45 0 01-6.61-.24zm-2.5 3.21a4.26 4.26 0 012.12.31c.63.45-1.21 1.7-1.21 1.7s-2.04-1.51-.91-2.01z"/><path class="cls-18" d="M771 410.56s-8.84 8.07 1.85 12.91c-.05 0-7.13-4.19-1.85-12.91z"/><path class="cls-16" d="M756.45 421.62c7-1 8.85-2 9.77.72s-15.93 6.64-21.56 1.13-4.27-11.39-4.27-11.39 3.02 11.39 16.06 9.54z"/><g class="cls-19"><path class="cls-20" d="M182.75 737.67h-50.96l5.1-326.97 70.55-4.29-24.69 331.26z"/></g><g class="cls-19"><path class="cls-20" d="M285.18 567h-58.05l-39.16-168.38 87.57 11.3L285.18 567z"/></g><g class="cls-19"><path class="cls-21" d="M363.75 350.93c-20.33-32.21-35.45-67.39-35.45-67.39l-44.13 30.14 33.11 52.54c4.2 7.4 22.11 5.44 26.72-1.71z"/></g><g class="cls-19"><path class="cls-2" d="M274.71 216.78L224.6 197h-52.26l-57.95 29.74c-4.91 2.94-4 8.89-2.2 14.33l24.29 166.83 138.58.82 18.74-172.49c1.34-5.59-13.91-16.94-19.09-19.45z"/><path class="cls-2" d="M280.19 220.18c33.08 24.17 48.11 63.36 48.11 63.36l-47.15 45.51-53.53-52zm-165.8 6.58S74.87 240 66.73 310.13l78.2 23.28 21.76-67.85z"/><path class="cls-10" d="M168.16 101.63a119.81 119.81 0 015.9 46.79c-.33 4.43-.89 9 .2 13.27s4.3 8.44 8.7 9.07c1.82-12.09 3.52-24.17 5.34-36.25.68-4.51 1.35-9.18.12-13.57a21.73 21.73 0 00-7.76-10.81 79.8 79.8 0 00-12.5-8.5z"/><path class="cls-22" d="M187.27 214.27c7.63 3.8 16.69 4.13 24.93 1.94s15.85-8 22.2-15.32c-3.22-4.72-6.06-6.84-8.31-12.25-.41-1-.8-2-1.17-3a69.09 69.09 0 01-3.48-13.14c-15.74-4.94-30.31-19.46-42.36-30.73 1.2 11.93.36 30.6-2.9 42.15a.43.43 0 01-.06.2 92.36 92.36 0 01-3.71 10.64c-3.28 7.88 7.24 15.7 14.86 19.51z"/><path class="cls-21" d="M176 184a.81.81 0 00.18.12 45.69 45.69 0 0014.27 6.64c.61.16 1.22.3 1.83.43a43.43 43.43 0 006.31.92 44.94 44.94 0 0023.5-4.86c1-.49 1.94-1 2.88-1.6a69.09 69.09 0 01-3.48-13.14c-15.74-4.94-30.31-19.46-42.36-30.73 1.2 11.93.36 30.6-2.9 42.15a1.19 1.19 0 00-.23.07z"/><path class="cls-10" d="M228.72 96.36a44.44 44.44 0 01-3.39 30.82c-4.11-9.46-2.48-22.33 3.39-30.82z"/><path class="cls-22" d="M179.93 126.23a20.79 20.79 0 00-2.53-4.39 6.9 6.9 0 00-4.24-2.59c-3.06-.41-5.91 2.15-6.81 5.11s-.27 6.15.61 9.11a21.22 21.22 0 002.93 6.48 9.79 9.79 0 005.72 4 6.42 6.42 0 006.41-2.18c-1.42-5.24-2.6-10.11-2.09-15.54z"/><path class="cls-22" d="M179.35 139.38q.1.92.24 1.83c1.56 10.94 4.8 22.17 12.53 30.06 6.87 7 17.24 10.7 26.87 8.77s18-9.81 19.76-19.47c1.19-6.51-.51-13.22-3-19.37s-5.66-12-7.73-18.28-3.56-14.94-1.19-21.13l-.78-.47C211.93 92.88 195.8 91 180.82 98a128 128 0 00-1.47 41.38z"/><path class="cls-10" d="M237.71 88.93a24.76 24.76 0 01-10.6 12.7 31.94 31.94 0 01-12.58 4.51c-10.05 1.37-20.23-1.45-29.55-5.42-.35.52-8.54 12.7-2.37 31.4l-8.5-18.24a39.28 39.28 0 00-3.39-7.87c-1.58-2.77-3.56-5.36-4.6-8.37s-.88-6.73 1.41-8.94c2.83-2.73 7.42-2.06 11.12-3.41 6.2-2.24 8.7-9.43 12.41-14.87a28.84 28.84 0 014.87-5.42 28.06 28.06 0 0115.16-6.85A25.74 25.74 0 01233 66.26a23.4 23.4 0 014.71 22.67z"/><path class="cls-20" d="M275.54 409.92l-138.66.78s-1.94-100.1 3.48-164.7c2.22-26.48 35.06 31.62 117.65-5.34 13.8-6.14 17.53 169.26 17.53 169.26z"/><path class="cls-20" d="M153.47 251.81h-13.1v-41.52l13.1-4.82v46.34zm98.57 2.03h12.54v-41.52l-12.54-4.82v46.34z"/></g><g class="cls-19"><path class="cls-22" d="M128.05 460.17s-43.36-32.79-62.22-63.11c-13.09-21 .91-86.94.91-86.94l49.33 14.69-15.65 50.28 36.07 61.53-1 64s-14.86-10.83-18.87-27.66c-4.85-20.33 15.89-34.9 15.89-34.9"/></g><g class="cls-19"><path class="cls-22" d="M136.48 436.63l7.42 30.29c.86 3.53-2.48 6.86-5.9 5.65a3.8 3.8 0 01-2.53-3c-1.25-5.77 1.01-32.94 1.01-32.94z"/></g><g class="cls-19"><path class="cls-23" d="M239.23 291.43a267.92 267.92 0 01-67.3 0s-2.34 43 33.65 45.34 33.65-45.34 33.65-45.34z"/></g><g class="cls-19"><path class="cls-23" d="M203.18 463.58L227.13 567h9.14l-21.58-105.67-11.51 2.25z"/></g><g class="cls-19"><path class="cls-22" d="M248 340.36a13.9 13.9 0 0114.69-9.47l38.24 2.11c19.61 2.1 27.09 1.48 45.93 6.56.3.08.61.18.91.28l8.07 4.22a13.81 13.81 0 019.4 12.88 32.34 32.34 0 01-.9 8.49c-3.23 11.8-20.9 17.4-32.62 13.92l-86.61-24.8a1.6 1.6 0 01-1.08-2.05z"/></g><g class="cls-19"><path class="cls-22" d="M213.05 328.51l.45 14.86c.32 5.69 2.56 8.13 8.2 8.93l27 3.3 5-39.08-29.49-4.16c-7.48-.92-11.58 8.64-11.16 16.15z"/></g><g class="cls-19"><path class="cls-22" d="M265.55 332.72c-1.44-1.68-9-17-11.84-37.7s-12.9-6.85-9.78 8.1-11.83 11-11.83 11l19.42 24z"/></g><g class="cls-19"><path class="cls-21" d="M213.61 322.49l13.3 1a1.67 1.67 0 011.25 2.64c-.11.14-.22.22-.3.19-.47-.16-14.63-1.79-14.63-1.79z"/></g><g class="cls-19"><path class="cls-21" d="M213.15 331.61l13.61.19a1.32 1.32 0 011.27 2.13c-.09.15-.19.24-.28.22-.48-.1-14.53-.25-14.53-.25z"/></g><g class="cls-19"><path class="cls-21" d="M213.35 339.68l13.61-.25a1.32 1.32 0 011.27 2.13c-.09.15-.19.24-.28.22-.48-.1-14.53.18-14.53.18z"/></g><g class="cls-19"><path class="cls-21" d="M136 470.87s-4.69-11.33-3.44-17.72 3.44 17.72 3.44 17.72z"/></g></g></svg>